<svg width="600" height="600" viewBox="0 0 600 600" fill="none" xmlns="http://www.w3.org/2000/svg">
<path d="M572.578 300.083C549.187 271.525 522.718 245.635 493.657 222.875C428.996 171.953 361.943 145 299.523 145C237.103 145 170.05 171.953 105.39 222.875C76.3275 245.635 49.8595 271.525 26.4688 300.083L19 309.265L26.4688 318.447C49.8595 347.005 76.3288 372.895 105.39 395.655C170.051 446.577 237.103 473.53 299.523 473.53C361.943 473.53 428.997 446.577 493.657 395.655C522.72 372.895 549.187 347.005 572.578 318.447L580.047 309.265L572.578 300.083ZM299.525 443.669C184.613 443.669 85.5248 341.003 57.7515 309.269C85.5275 277.535 184.683 174.869 299.525 174.869C414.366 174.869 513.525 277.536 541.298 309.269C513.522 341.004 414.662 443.669 299.525 443.669Z" fill="black"/>
<path d="M299.525 238.336C280.713 238.336 262.67 245.81 249.369 259.112C236.067 272.414 228.593 290.456 228.593 309.268C228.593 328.08 236.067 346.123 249.369 359.424C262.671 372.726 280.713 380.2 299.525 380.2C318.337 380.2 336.379 372.726 349.681 359.424C362.983 346.122 370.457 328.08 370.457 309.268C370.436 290.461 362.957 272.429 349.659 259.132C336.363 245.835 318.331 238.356 299.523 238.335L299.525 238.336ZM299.525 350.336C288.634 350.336 278.186 346.008 270.489 338.305C262.786 330.607 258.458 320.16 258.458 309.269C258.458 298.378 262.786 287.93 270.489 280.233C278.187 272.53 288.634 268.202 299.525 268.202C310.415 268.202 320.863 272.53 328.561 280.233C336.264 287.931 340.592 298.378 340.592 309.269C340.571 320.154 336.238 330.586 328.54 338.285C320.842 345.983 310.41 350.315 299.525 350.336Z" fill="black"/>
<line x1="489.031" y1="119.749" x2="100.749" y2="509.005" stroke="black" stroke-width="35" stroke-linecap="round"/>
</svg>
