<svg width="600" height="600" viewBox="0 0 600 600" fill="none" xmlns="http://www.w3.org/2000/svg">
<path d="M572.578 291.083C549.187 262.525 522.718 236.635 493.657 213.875C428.996 162.953 361.943 136 299.523 136C237.103 136 170.05 162.953 105.39 213.875C76.3275 236.635 49.8595 262.525 26.4688 291.083L19 300.265L26.4688 309.447C49.8595 338.005 76.3288 363.895 105.39 386.655C170.051 437.577 237.103 464.53 299.523 464.53C361.943 464.53 428.997 437.577 493.657 386.655C522.72 363.895 549.187 338.005 572.578 309.447L580.047 300.265L572.578 291.083ZM299.525 434.669C184.613 434.669 85.5248 332.003 57.7515 300.269C85.5275 268.535 184.683 165.869 299.525 165.869C414.366 165.869 513.525 268.536 541.298 300.269C513.522 332.004 414.662 434.669 299.525 434.669Z" fill="black"/>
<path d="M299.525 229.336C280.713 229.336 262.67 236.81 249.369 250.112C236.067 263.414 228.593 281.456 228.593 300.268C228.593 319.08 236.067 337.123 249.369 350.424C262.671 363.726 280.713 371.2 299.525 371.2C318.337 371.2 336.379 363.726 349.681 350.424C362.983 337.122 370.457 319.08 370.457 300.268C370.436 281.461 362.957 263.429 349.659 250.132C336.363 236.835 318.331 229.356 299.523 229.335L299.525 229.336ZM299.525 341.336C288.634 341.336 278.186 337.008 270.489 329.305C262.786 321.607 258.458 311.16 258.458 300.269C258.458 289.378 262.786 278.93 270.489 271.233C278.187 263.53 288.634 259.202 299.525 259.202C310.415 259.202 320.863 263.53 328.561 271.233C336.264 278.931 340.592 289.378 340.592 300.269C340.571 311.154 336.238 321.586 328.54 329.285C320.842 336.983 310.41 341.315 299.525 341.336Z" fill="black"/>
</svg>
